<svg width="24" height="24" viewBox="0 0 24 24" fill="none" xmlns="http://www.w3.org/2000/svg">
<path d="M10.79 3.09998C11.29 2.09998 12.71 2.09998 13.21 3.09998L15.57 7.87998L20.84 8.64998C21.94 8.80998 22.39 10.17 21.59 10.95L17.77 14.67L18.67 19.92C18.712 20.1682 18.6838 20.4232 18.5886 20.6562C18.4933 20.8892 18.3348 21.091 18.131 21.2387C17.9271 21.3864 17.686 21.4741 17.4349 21.492C17.1838 21.5099 16.9327 21.4573 16.71 21.34L12 18.86L7.27996 21.34C7.05722 21.4573 6.80611 21.5099 6.55501 21.492C6.30391 21.4741 6.06282 21.3864 5.85896 21.2387C5.6551 21.091 5.4966 20.8892 5.40136 20.6562C5.30611 20.4232 5.27792 20.1682 5.31996 19.92L6.21996 14.67L2.40996 10.95C1.60996 10.17 2.04996 8.80998 3.15996 8.64998L8.42996 7.87998L10.79 3.09998ZM11.99 4.03998L9.74996 8.59998C9.54996 8.99998 9.16996 9.27998 8.72996 9.33998L3.67996 10.08L7.33996 13.64C7.65996 13.94 7.79996 14.4 7.72996 14.84L6.85996 19.86L11.38 17.49C11.78 17.29 12.24 17.29 12.64 17.49L17.15 19.86L16.29 14.83C16.22 14.4 16.36 13.95 16.68 13.63L20.33 10.08L15.28 9.33998C15.0644 9.30737 14.8599 9.22302 14.684 9.09415C14.5081 8.96528 14.366 8.79572 14.27 8.59998L12 4.03998H11.99Z" fill="#007BFF"/>
</svg>
